<svg height="512pt" viewBox="0 0 512 512" width="512pt" xmlns="http://www.w3.org/2000/svg"><path d="m512 421c0 49.800781-115.300781 91-256 91s-256-41.199219-256-91 115.300781-90 256-90 256 40.199219 256 90zm0 0" fill="#e0f4ff"/><path d="m512 421c0 49.800781-115.300781 91-256 91v-181c140.699219 0 256 40.199219 256 90zm0 0" fill="#bbdcff"/><path d="m361 30v120l-105 91h-46.800781l-58.199219-30v-181c0-16.5 13.5-30 30-30h150c16.5 0 30 13.5 30 30zm0 0" fill="#e0f4ff"/><path d="m361 30v120l-105 91v-241h75c16.5 0 30 13.5 30 30zm0 0" fill="#bbdcff"/><path d="m316 120v-30c0-16.570312-13.429688-30-30-30s-30 13.429688-30 30v151h42.1875l32.8125-30c16.570312 0 30-13.429688 30-30v-31h-15c-16.570312 0-30-13.429688-30-30zm0 0" fill="#9abadb"/><path d="m436 211h-150c-16.570312 0-30 13.429688-30 30l-30 76.875 30 73.125c0 16.570312 13.429688 30 30 30h75l105-60v-120c0-16.570312-13.429688-30-30-30zm0 0" fill="#bbdcff"/><path d="m406 331v-30c0-16.570312-13.429688-30-30-30s-30 13.429688-30 30v120h90c16.570312 0 30-13.429688 30-30v-30h-30c-16.570312 0-30-13.429688-30-30zm0 0" fill="#9abadb"/><path d="m226 211h-150c-16.570312 0-30 13.429688-30 30v150c0 16.570312 13.429688 30 30 30h75l105-60v-120c0-16.570312-13.429688-30-30-30zm0 0" fill="#e0f4ff"/><path d="m196 331v-30c0-16.570312-13.429688-30-30-30s-30 13.429688-30 30v120h90c16.570312 0 30-13.429688 30-30v-30h-30c-16.570312 0-30-13.429688-30-30zm0 0" fill="#bbdcff"/></svg>